<svg id="Group_673" data-name="Group 673" xmlns="http://www.w3.org/2000/svg" width="34" height="34" viewBox="0 0 34 34">
  <g id="Icon_ionic-ios-close-circle-outline" data-name="Icon ionic-ios-close-circle-outline" transform="translate(9.664 9.661)">
    <path id="Path_7184" data-name="Path 7184" d="M26.6,24.531l-4.825-4.825L26.6,14.881a1.463,1.463,0,1,0-2.069-2.069L19.7,17.637l-4.825-4.825a1.463,1.463,0,0,0-2.069,2.069l4.825,4.825L12.81,24.531a1.415,1.415,0,0,0,0,2.069,1.453,1.453,0,0,0,2.069,0L19.7,21.775,24.53,26.6a1.47,1.47,0,0,0,2.069,0A1.454,1.454,0,0,0,26.6,24.531Z" transform="translate(-12.359 -12.354)" fill="#fff"/>
  </g>
  <g id="Rectangle_1507" data-name="Rectangle 1507" fill="none" stroke="#fff" stroke-width="1">
    <rect width="34" height="34" stroke="none"/>
    <rect x="0.5" y="0.5" width="33" height="33" fill="none"/>
  </g>
</svg>
