<svg xmlns="http://www.w3.org/2000/svg" width="32.288" height="32.288" viewBox="0 0 32.288 32.288">
  <path id="Icon_ionic-logo-facebook" data-name="Icon ionic-logo-facebook" d="M35.005,4.5H6.283A1.783,1.783,0,0,0,4.5,6.283V35.005a1.783,1.783,0,0,0,1.783,1.783H20.644V24.007H16.785V19.3h3.859V15.818c0-4.171,2.892-6.441,6.617-6.441,1.783,0,3.7.135,4.145.193v4.355H28.438c-2.026,0-2.413.959-2.413,2.371v3h4.826l-.631,4.709h-4.2V36.788h8.98a1.783,1.783,0,0,0,1.783-1.783V6.283A1.783,1.783,0,0,0,35.005,4.5Z" transform="translate(-4.5 -4.5)" fill="#fff"/>
</svg>
