<svg xmlns="http://www.w3.org/2000/svg" width="29.873" height="36.999" viewBox="0 0 29.873 36.999">
  <path id="Icon_simple-gumtree" data-name="Icon simple-gumtree" d="M28.243,9.78a1,1,0,0,1-.472-.855,9.821,9.821,0,0,0-19.56,0,1,1,0,0,1-.471.855A9.846,9.846,0,0,0,10.87,27.342a2.686,2.686,0,0,0,1.71.091c.568-.282,1.14-2.748.855-3.319a3.232,3.232,0,0,0-1.521-.759,5.806,5.806,0,0,1-4.272-5.6,5.712,5.712,0,0,1,1.521-3.9,5.337,5.337,0,0,1,1.422-1.135A3.361,3.361,0,0,0,12.3,9.776a5.461,5.461,0,0,1,.283-1.8,5.8,5.8,0,0,1,11.013,0,5.461,5.461,0,0,1,.284,1.8A3.163,3.163,0,0,0,25.588,12.7a3.989,3.989,0,0,1,1.419,1.128,5.665,5.665,0,0,1,1.521,3.9,5.758,5.758,0,0,1-5.79,5.792,6.65,6.65,0,0,0-6.646,6.624V33.93a3.54,3.54,0,0,0,.285,1.713,4.283,4.283,0,0,0,3.417,0,3.293,3.293,0,0,0,.292-1.713V30.056a2.569,2.569,0,0,1,2.569-2.569,9.757,9.757,0,0,0,5.61-17.755l-.022.05Z" transform="translate(-3.063 0.5)" fill="none" stroke="#000" stroke-width="1"/>
</svg>
