<svg xmlns="http://www.w3.org/2000/svg" xmlns:xlink="http://www.w3.org/1999/xlink" width="33" height="35" viewBox="0 0 33 35">
  <defs>
    <clipPath id="clip-path">
      <rect id="Rectangle_539" data-name="Rectangle 539" width="33" height="35" transform="translate(0 0)" fill="none" stroke="#707070" stroke-width="1"/>
    </clipPath>
  </defs>
  <g id="Group_159" data-name="Group 159" transform="translate(-0.111 0.333)">
    <g id="Group_158" data-name="Group 158" transform="translate(0.111 -0.333)" clip-path="url(#clip-path)">
      <path id="Path_42" data-name="Path 42" d="M11.111,8V1h21V27.444H24.333v6.222H1V8Z" transform="translate(-0.333 0.111)" fill="none" stroke="#505050" stroke-linejoin="round" stroke-width="1"/>
      <path id="Path_43" data-name="Path 43" d="M12,24.333h0a2.333,2.333,0,1,1,4.667,0V29" transform="translate(-2.778 -4.555)" fill="none" stroke="#505050" stroke-miterlimit="10" stroke-width="1"/>
      <path id="Path_44" data-name="Path 44" d="M18,24.333h0a2.333,2.333,0,1,1,4.667,0V29" transform="translate(-4.111 -4.555)" fill="none" stroke="#505050" stroke-miterlimit="10" stroke-width="1"/>
      <line id="Line_29" data-name="Line 29" y1="7" transform="translate(9 17)" fill="none" stroke="#505050" stroke-miterlimit="10" stroke-width="1"/>
      <path id="Path_45" data-name="Path 45" d="M29.882,16.368v1.556H25.993v-.778c2.333-2.312,3.151-2.794,3.547-3.585.295-.591.537-2.3-.789-2.758a2,2,0,0,0-2.784,1.4" transform="translate(-5.882 -2.034)" fill="none" stroke="#505050" stroke-linejoin="round" stroke-width="1"/>
    </g>
  </g>
</svg>
