<svg id="Group_785" data-name="Group 785" xmlns="http://www.w3.org/2000/svg" width="70" height="68.381" viewBox="0 0 70 68.381">
  <path id="Path_7394" data-name="Path 7394" d="M4344.8,2891.936a1.352,1.352,0,0,0-1.855-.464l-18.53,11.118-.031.021a.865.865,0,0,0-.074.051l-.042.032c-.021.017-.041.033-.062.051s-.029.028-.045.043-.033.032-.049.05l-.045.054-.039.047c-.016.022-.03.044-.045.067s-.02.028-.028.042-.031.055-.045.082c-.006.01-.012.021-.017.031s0,0,0,.006c-.013.027-.023.056-.035.084s-.012.028-.016.042a.447.447,0,0,0-.02.06,1.312,1.312,0,0,0-.06.409v.048c0,.013,0,.027,0,.04a1.33,1.33,0,0,0,.1.415c.007.017.014.035.021.052s.016.029.022.043l.041.077,0,.007c.018.029.036.058.057.085l.019.026c.019.024.037.047.057.07l.019.024c.026.029.053.056.081.083,0,0,.01.008.015.013.026.024.054.048.082.07l.016.012c.033.024.066.048.1.07l.013.007a1.2,1.2,0,0,0,.109.06l0,0,0,0,.007,0,16.391,7.92a1.352,1.352,0,0,0,1.178-2.435l-14.148-6.837,16.384-9.829A1.352,1.352,0,0,0,4344.8,2891.936Z" transform="translate(-4274.996 -2870.992)" fill="#fff"/>
  <path id="Path_7395" data-name="Path 7395" d="M3994.273,2796.644a8.265,8.265,0,1,0-8.265,8.265A8.274,8.274,0,0,0,3994.273,2796.644Zm-8.265,4.981a4.981,4.981,0,1,1,4.981-4.981A4.987,4.987,0,0,1,3986.008,2801.625Z" transform="translate(-3962.402 -2778.032)" fill="#fff"/>
  <path id="Path_7396" data-name="Path 7396" d="M3882.836,2724.321l-17.979-8.659h0a1.329,1.329,0,0,0-.125-.053c-.022-.008-.045-.014-.067-.021s-.038-.013-.058-.018-.062-.014-.092-.02l-.036-.007-.086-.009-.045,0h-.134l-.055,0-.077.007-.039.007c-.03.005-.061.011-.091.018l-.025.007c-.034.009-.067.018-.1.03l-.02.008a1.159,1.159,0,0,0-.12.05c-.034.016-.067.034-.1.052h0l-16.528,9.771a16.876,16.876,0,0,1,.7-2.662l22.118-13.073.006,0c.036-.022.071-.044.1-.07l.014-.01c.028-.021.056-.044.083-.068l.021-.019a1.169,1.169,0,0,0,.085-.085l.005-.006c.024-.027.047-.056.07-.085l.022-.031c.016-.022.031-.045.046-.069l.02-.032c.019-.032.037-.065.053-.1v0c.019-.041.037-.082.052-.124s.017-.056.025-.083.009-.027.013-.042c.008-.032.014-.064.02-.1,0-.011,0-.021.007-.032,0-.03.007-.061.01-.09,0-.014,0-.027,0-.041s0-.051,0-.077,0-.038,0-.056,0-.042-.005-.061,0-.048-.007-.072-.006-.032-.009-.047-.009-.055-.016-.083-.008-.027-.012-.041-.016-.057-.025-.085-.017-.043-.026-.065-.014-.038-.023-.056a1.345,1.345,0,0,0-.063-.121h0l0-.008c-.021-.035-.044-.07-.069-.1l-.025-.031c-.019-.024-.038-.049-.059-.072l-.041-.041c-.017-.018-.034-.036-.052-.053s-.037-.031-.055-.046-.03-.026-.046-.038-.049-.034-.074-.051l-.036-.024c-.034-.021-.068-.04-.1-.057l-.014-.007h0l0,0-8.894-4.27a18.549,18.549,0,0,0,.242-2.062l12.254,5.91c.043.021.087.039.132.055l.021.008c.04.014.081.025.122.035l.034.007c.039.009.079.016.119.021l.032,0c.04,0,.081.006.121.007h.016l.084,0h.011c.027,0,.055,0,.082-.009h.01l.082-.014.011,0c.026-.006.052-.012.078-.019l.016,0,.07-.023.025-.009.058-.023.037-.017.044-.021.045-.024.025-.013,9.1-5.357a1.352,1.352,0,1,0-1.372-2.331l-8.477,4.99L3861.051,2698a18.622,18.622,0,1,0-29.676,16.82h0a17,17,0,0,1,6.558,10.664l-18.349,10.892a1.352,1.352,0,1,0,1.38,2.326l17.225-10.224v2.26l-15.117,8.939a1.353,1.353,0,1,0,1.377,2.329l13.748-8.13a4.354,4.354,0,0,0,7.141,2.883l26.453,12.75a1.352,1.352,0,0,0,1.174-2.437l-26.247-12.65a4.026,4.026,0,0,0,.076-.772v-1.34l28.446,13.713a1.352,1.352,0,0,0,1.174-2.437l-29.62-14.279v-.525l17.54-10.369,17.328,8.345a1.336,1.336,0,0,0,.586.134,1.352,1.352,0,0,0,.587-2.571Zm-16.516-15.61-16.094,9.513a16.986,16.986,0,0,1,3.419-3.4,18.576,18.576,0,0,0,6.552-9.049Zm-23.79,25.791a1.023,1.023,0,0,1-1.054-.853V2728.4h0a20.3,20.3,0,0,0-8.137-16.216h0a15.348,15.348,0,1,1,18.347,0,20.317,20.317,0,0,0-8.173,16.216v5.247A.918.918,0,0,1,3842.529,2734.5Z" transform="translate(-3818.922 -2681.26)" fill="#fff"/>
</svg>
