<svg xmlns="http://www.w3.org/2000/svg" width="70" height="63.056" viewBox="0 0 70 63.056">
  <g id="Group_814" data-name="Group 814" transform="translate(-2662.125 -5119.177)">
    <path id="Path_7419" data-name="Path 7419" d="M2723.193,5135.269a13.353,13.353,0,0,0,5.049.979c.142,0,.284,0,.426-.008a11.151,11.151,0,0,0,1.624,2.719,8.635,8.635,0,0,0,6.216,3.318q.224.012.444.012c4.086,0,7.034-3.088,8.326-6.371h19.555a4.3,4.3,0,0,0,0-8.588h-.647v-5.47h0a2.319,2.319,0,0,0-3.707-1.862l-.006,0-.006,0-1.45,1.12-1.476-1.125h0l0,0a2.275,2.275,0,0,0-2.4-.214,2.347,2.347,0,0,0-1.307,2.077v5.47h-8.507a9.642,9.642,0,0,0-4.965-5.5,8.054,8.054,0,0,0-6.832-.094,8.974,8.974,0,0,0-.963.512,13.171,13.171,0,0,0-5.6-2.735,11.443,11.443,0,0,0-7.532.682,6.873,6.873,0,0,0-3.334,3.993C2714.648,5128.871,2718.569,5133.307,2723.193,5135.269Zm15.887-10.705a6.568,6.568,0,0,1,3.511,4.138l.15.541a1.509,1.509,0,0,0,1.454,1.1h11.143a1.509,1.509,0,0,0,1.509-1.509v-5.572l1.26.961a1.509,1.509,0,0,0,1.837-.005l1.223-.944v5.561a1.509,1.509,0,0,0,1.509,1.509h2.1a1.274,1.274,0,0,1,1.242,1.262,1.305,1.305,0,0,1-1.242,1.292H2744.2a1.509,1.509,0,0,0-1.454,1.1c-.737,2.651-2.952,5.428-6.071,5.259a6.1,6.1,0,0,1-4.927-3.553,8.234,8.234,0,0,0,1.367-.6,6.974,6.974,0,0,0,.893-.587,3.074,3.074,0,1,0-1.727-1.421c-.068.042-.138.083-.209.123a6.205,6.205,0,0,1-1.066.459,7.777,7.777,0,0,1-.185-1.3c-.157-2.966,1-6.559,3.957-7.9A5.081,5.081,0,0,1,2739.08,5124.563Zm-20.921.262a4.7,4.7,0,0,1,2.285-2.728,9.162,9.162,0,0,1,6.063-.479,11,11,0,0,1,4.327,2,12.116,12.116,0,0,0-3.033,8.919,10.611,10.611,0,0,0,.2,1.551,11.072,11.072,0,0,1-3.969-.809,12.3,12.3,0,0,1-4.695-3.492A5.259,5.259,0,0,1,2718.159,5124.826Z" transform="translate(-47.884)" fill="#fff"/>
    <path id="Path_7420" data-name="Path 7420" d="M2730.668,5354.85l-.015-.022-.013-.019c-.015-.021-.031-.039-.047-.059s-.027-.038-.043-.056l-.015-.017-.016-.018a6.33,6.33,0,0,0-7.417-1.809,5.258,5.258,0,0,0-3.146-2.109h-.02a8.991,8.991,0,0,0-4.845.3,5.087,5.087,0,0,0-2.85-1.747l-.015,0-.03-.006-.015,0h-.007a9.047,9.047,0,0,0-6.716,1.172l-.032.022-.033.02-9.453,6.464a37.783,37.783,0,0,1-7.706-4.02h0a17.187,17.187,0,0,0-17.866-1.066h0l-7.3,3.84a1.927,1.927,0,0,0-.785,2.439,1.641,1.641,0,0,0,1.489,1.05,1.5,1.5,0,0,0,.7-.176l7.292-3.838h0a14.194,14.194,0,0,1,14.755.879h0a40.888,40.888,0,0,0,8.858,4.546,1.527,1.527,0,0,0,.492.177,39.015,39.015,0,0,0,7.887,1.892l.076.01.247.032a3.08,3.08,0,0,1,2.53,2.727,2.073,2.073,0,0,0,.023.26c0,.066.006.132.005.2a3.216,3.216,0,0,1-2.7,3.13,20.471,20.471,0,0,1-14.606-2.516,1.564,1.564,0,0,0-2.226.754,1.941,1.941,0,0,0,.678,2.479,23.7,23.7,0,0,0,12.1,3.359,23.007,23.007,0,0,0,4.65-.474h.005a6.693,6.693,0,0,0,5.366-6.254l13.811-9.8h0a3.257,3.257,0,0,1,4.382.561,4.3,4.3,0,0,1,.683,3.046,4.026,4.026,0,0,1-1.594,2.693l-.02.016-.019.013-25.241,19.1h0a8,8,0,0,1-8.677.722h0l-12.006-6.412h0a7.78,7.78,0,0,0-6.855-.257h0l-11.2,4.936a1.906,1.906,0,0,0-.925,2.377,1.657,1.657,0,0,0,1.53,1.159,1.5,1.5,0,0,0,.6-.129l11.206-4.937h0a4.787,4.787,0,0,1,4.221.154h0l12.006,6.412h0a10.991,10.991,0,0,0,5.19,1.311,11.185,11.185,0,0,0,6.757-2.3h0l25.242-19.1.008-.007a7.75,7.75,0,0,0,3.021-5.144A8.278,8.278,0,0,0,2730.668,5354.85Zm-23.149,5.626,7.33-5.368c.074-.044.149-.088.224-.129.044-.019.087-.037.13-.061s.06-.036.089-.054a6.081,6.081,0,0,1,4.028-.528h.01a1.938,1.938,0,0,1,.848.419l-11.025,7.823A6.767,6.767,0,0,0,2707.519,5360.476Zm-.448-6.83a6.123,6.123,0,0,1,4.5-.765l.023,0,.022.005a1.773,1.773,0,0,1,.2.053l-8.226,6.023q-1.68-.247-3.341-.656Z" transform="translate(0 -205.116)" fill="#fff"/>
  </g>
</svg>
