<svg id="Group_786" data-name="Group 786" xmlns="http://www.w3.org/2000/svg" width="70" height="70.728" viewBox="0 0 70 70.728">
  <path id="Path_7397" data-name="Path 7397" d="M492.5,3918.059H435.048a1.672,1.672,0,0,0-1.672,1.672v58.175a1.672,1.672,0,0,0,1.672,1.672h44.477a1.672,1.672,0,0,0,1.672-1.672v-14.852h11.3a1.672,1.672,0,0,0,1.672-1.672v-41.651A1.672,1.672,0,0,0,492.5,3918.059Zm-1.672,41.652h-11.3a1.672,1.672,0,0,0-1.672,1.671v14.852H436.72V3921.4h54.1Z" transform="translate(-424.168 -3908.851)" fill="#fff"/>
  <path id="Path_7398" data-name="Path 7398" d="M344.937,3923.813a1.377,1.377,0,0,0,0-2.754h-3.81a1.377,1.377,0,0,0,0,2.754h.507v55.422h-.507a1.377,1.377,0,0,0,0,2.754h3.81a1.377,1.377,0,0,0,0-2.754h-.549v-55.422Z" transform="translate(-339.75 -3911.556)" fill="#fff"/>
  <path id="Path_7399" data-name="Path 7399" d="M437.753,3831a1.377,1.377,0,0,0,1.377-1.377v-.549h54.48v.549a1.377,1.377,0,1,0,2.754,0v-3.809a1.377,1.377,0,1,0-2.754,0v.506H439.13v-.506a1.377,1.377,0,1,0-2.754,0v3.809A1.377,1.377,0,0,0,437.753,3831Z" transform="translate(-426.873 -3824.433)" fill="#fff"/>
  <path id="Path_7400" data-name="Path 7400" d="M586.838,4170.665v-10.537c1.037-1.3,2.083-1.963,3.111-1.963a1.46,1.46,0,0,1,1.313.537,4.121,4.121,0,0,1,.426,2.251v9.712h3.51v-10.536c1.045-1.3,2.1-1.964,3.124-1.964a1.444,1.444,0,0,1,1.3.537,4.121,4.121,0,0,1,.426,2.251v9.712h3.524v-9.819c0-4.75-2.65-5.748-4.874-5.748a5.2,5.2,0,0,0-2.152.5,6.952,6.952,0,0,0-2.069,1.669,4.275,4.275,0,0,0-4.139-2.164,5.208,5.208,0,0,0-3.5,1.42v-1.1h-3.524v15.244Z" transform="translate(-559.359 -4122.577)" fill="#fff"/>
  <path id="Path_7401" data-name="Path 7401" d="M786.172,4039.591h-3.807c.214-.207.518-.481.95-.842a13.5,13.5,0,0,0,2.206-2.157,3.357,3.357,0,0,0,.626-2,2.894,2.894,0,0,0-.869-2.138,3.275,3.275,0,0,0-2.4-.855,3.366,3.366,0,0,0-2.35.83,3.223,3.223,0,0,0-1.023,2.195l-.044.532h2.175l.033-.456a1.3,1.3,0,0,1,.372-.92,1.339,1.339,0,0,1,1.662-.021,1.081,1.081,0,0,1,.28.808,1.844,1.844,0,0,1-.4,1.166,11.472,11.472,0,0,1-1.761,1.647,9.848,9.848,0,0,0-1.946,1.931,3.212,3.212,0,0,0-.589,1.83v.491h6.877Z" transform="translate(-736.065 -4011.223)" fill="#fff"/>
</svg>
