<svg xmlns="http://www.w3.org/2000/svg" width="70" height="59.078" viewBox="0 0 70 59.078">
  <path id="Path_7404" data-name="Path 7404" d="M2663.365,1627.825a7.57,7.57,0,0,1,5.876-7.367l.01,0,.01,0c.315-.069.628-.134.942-.2v-8.57h0a4.057,4.057,0,0,1,3.692-4.018h0a3.522,3.522,0,0,0,3.216-3.227h0a3.973,3.973,0,0,1,3.991-3.654h34.527a4.058,4.058,0,0,1,4.047,3.664h0a3.507,3.507,0,0,0,3.2,3.216h0a4.052,4.052,0,0,1,3.681,4.02v8.573l.914.2.01,0,.009,0a7.57,7.57,0,0,1,5.876,7.368v19.065c0,2.172-1.488,4.516-3.892,4.516h-3.5l-1.007,5.7c0,.013-.006.025-.009.038s0,.021-.005.031a3.638,3.638,0,0,1-7.038-.063s0,0,0-.007l-1.008-5.7h-37.085l-.984,5.695a.126.126,0,0,1,0,.013s0,.008,0,.012a3.469,3.469,0,0,1-3.537,2.734,3.54,3.54,0,0,1-3.532-2.708c0-.007,0-.014,0-.021s0-.016-.006-.024l-1.007-5.7h-3.55c-2.4-.079-3.838-2.358-3.838-4.515v-19.065h0Zm59.89-16.142a.73.73,0,0,0-.657-.73h0a6.8,6.8,0,0,1-6.211-6.229h0a.748.748,0,0,0-.757-.64H2681.1a.683.683,0,0,0-.7.629v0a6.816,6.816,0,0,1-6.228,6.238h0a.744.744,0,0,0-.668.729v7.909q1.054-.2,2.1-.38a1.7,1.7,0,0,1-.014-.21v-2.042a4.167,4.167,0,0,1,3.354-4.059h0a34.732,34.732,0,0,1,13.78,0h0a4.138,4.138,0,0,1,3.3,4.054v.266q2.355-.053,4.67-.027v-.324h0a4.155,4.155,0,0,1,3.333-4.054h0a34.731,34.731,0,0,1,13.779,0h0a4.152,4.152,0,0,1,3.323,4.058v2.071c0,.073,0,.146-.007.22q1.032.191,2.124.408Zm-30.527,5.277a.817.817,0,0,0-.651-.817h0a31.444,31.444,0,0,0-12.478,0h0a.868.868,0,0,0-.7.823v1.723a135.241,135.241,0,0,1,13.834-1.345Zm25.108,1.635v-1.72a.841.841,0,0,0-.673-.822h0a31.455,31.455,0,0,0-12.478,0h0a.843.843,0,0,0-.683.818v.4l.6.021a110.932,110.932,0,0,1,11.723,1.063Q2717.067,1618.47,2717.836,1618.594Zm8.914,5.081c-4.262-.929-7.729-1.58-10.91-2.049a107.66,107.66,0,0,0-11.377-1.031c-3.721-.152-7.589-.14-11.5.035a135.287,135.287,0,0,0-22.991,3.045,4.247,4.247,0,0,0-3.31,4.149v19.065c0,.588.321,1.2.639,1.215h62.167c.222,0,.591-.568.591-1.215v-9.737H2692.4a1.214,1.214,0,0,1,0-2.427h37.661v-6.9A4.247,4.247,0,0,0,2726.75,1623.676Zm-5.594,32.783a.544.544,0,0,0,.3.1.389.389,0,0,0,.274-.1l.893-5.056h-2.362Zm-46.158,0a.486.486,0,0,0,.3.1.55.55,0,0,0,.3-.078l.877-5.075h-2.37Z" transform="translate(-2663.365 -1600.783)" fill="#fff"/>
</svg>
