<svg xmlns="http://www.w3.org/2000/svg" xmlns:xlink="http://www.w3.org/1999/xlink" width="37" height="32" viewBox="0 0 37 32">
  <defs>
    <clipPath id="clip-path">
      <rect id="Rectangle_542" data-name="Rectangle 542" width="37" height="32" transform="translate(0.333 -0.333)" fill="none" stroke="#707070" stroke-width="1"/>
    </clipPath>
  </defs>
  <g id="Group_163" data-name="Group 163" transform="translate(-0.333 0.333)">
    <g id="Group_162" data-name="Group 162" clip-path="url(#clip-path)">
      <path id="Path_50" data-name="Path 50" d="M1,27.463a3.875,3.875,0,0,1,3.889-3.906V1A3.86,3.86,0,0,0,1,4.89Z" transform="translate(-0.222 -0.222)" fill="none" stroke="#505050" stroke-linejoin="round" stroke-width="1"/>
      <path id="Path_51" data-name="Path 51" d="M4.889,7H36.778V32.667H4.906A3.927,3.927,0,0,1,1,28.778" transform="translate(-0.222 -1.556)" fill="none" stroke="#505050" stroke-linejoin="round" stroke-width="1"/>
      <path id="Path_52" data-name="Path 52" d="M21.556,18.444v6.222H13V13h8.556v3.111" transform="translate(-2.889 -2.889)" fill="none" stroke="#505050" stroke-miterlimit="10" stroke-width="1"/>
      <path id="Path_53" data-name="Path 53" d="M24,13H36.444v7.778H33.333" transform="translate(-5.333 -2.889)" fill="none" stroke="#505050" stroke-miterlimit="10" stroke-width="1"/>
      <path id="Path_54" data-name="Path 54" d="M29.333,23h3.111v8.556H20V26.889" transform="translate(-4.444 -5.111)" fill="none" stroke="#505050" stroke-miterlimit="10" stroke-width="1"/>
      <line id="Line_36" data-name="Line 36" x1="4" transform="translate(18.333 17.667)" fill="none" stroke="#505050" stroke-miterlimit="10" stroke-width="1"/>
    </g>
  </g>
</svg>
