<svg xmlns="http://www.w3.org/2000/svg" width="34" height="34" viewBox="0 0 34 34">
  <g id="Group_789" data-name="Group 789" transform="translate(-1830 -1032)">
    <rect id="Rectangle_1516" data-name="Rectangle 1516" width="34" height="34" transform="translate(1830 1032)"/>
    <path id="Icon_awesome-chevron-right" data-name="Icon awesome-chevron-right" d="M15.589,15.1,5.3,25.391a1.27,1.27,0,0,1-1.8,0l-1.2-1.2a1.27,1.27,0,0,1,0-1.795l8.153-8.191L2.3,6.014a1.27,1.27,0,0,1,0-1.795l1.2-1.2a1.27,1.27,0,0,1,1.8,0L15.589,13.307A1.27,1.27,0,0,1,15.589,15.1Z" transform="translate(1854.961 1063.206) rotate(180)" fill="#fff"/>
  </g>
</svg>
