<svg xmlns="http://www.w3.org/2000/svg" width="65.035" height="65.343" viewBox="0 0 65.035 65.343">
  <path id="Icon_ionic-ios-search" data-name="Icon ionic-ios-search" d="M68.772,65.107,50.685,46.768a25.9,25.9,0,1,0-20.255,9.8,25.767,25.767,0,0,0,16.343-5.818l17.969,18.22a2.775,2.775,0,0,0,3.929.1A2.823,2.823,0,0,0,68.772,65.107ZM30.429,50.97A20.4,20.4,0,0,1,10.072,30.538,20.357,20.357,0,1,1,44.825,44.982,20.183,20.183,0,0,1,30.429,50.97Z" transform="translate(-4.5 -4.493)" fill="#fff"/>
</svg>
