<svg xmlns="http://www.w3.org/2000/svg" width="27.395" height="20.546" viewBox="0 0 27.395 20.546">
  <path id="Icon_awesome-envelope" data-name="Icon awesome-envelope" d="M26.876,11.284a.322.322,0,0,1,.519.251V22.478a2.569,2.569,0,0,1-2.568,2.568H2.568A2.569,2.569,0,0,1,0,22.478V11.541a.32.32,0,0,1,.519-.251c1.2.931,2.788,2.113,8.245,6.078,1.129.824,3.034,2.558,4.933,2.547,1.91.016,3.852-1.755,4.939-2.547C24.094,13.4,25.677,12.215,26.876,11.284ZM13.7,18.2c1.241.021,3.028-1.562,3.927-2.215,7.1-5.153,7.641-5.6,9.278-6.886A1.28,1.28,0,0,0,27.4,8.085V7.068A2.569,2.569,0,0,0,24.827,4.5H2.568A2.569,2.569,0,0,0,0,7.068V8.085A1.288,1.288,0,0,0,.492,9.1C2.13,10.375,2.67,10.83,9.77,15.982,10.669,16.635,12.456,18.219,13.7,18.2Z" transform="translate(0 -4.5)" fill="#bbb"/>
</svg>
