<?xml version="1.0" encoding="utf-8"?>
<!-- Generator: Adobe Illustrator 25.2.0, SVG Export Plug-In . SVG Version: 6.00 Build 0)  -->
<svg version="1.1" id="Warstwa_1" xmlns="http://www.w3.org/2000/svg" xmlns:xlink="http://www.w3.org/1999/xlink" x="0px" y="0px"
	 viewBox="0 0 57 72" style="enable-background:new 0 0 57 72;" xml:space="preserve">
<style type="text/css">
	.st0{fill:#80C8D6;}
	.st1{fill:#FFFFFF;}
</style>
<g>
	<rect transform="matrix(-1 -1.224647e-16 1.224647e-16 -1 57 72)" class="st0" width="57" height="72"/>
	<path class="st1" d="M16.1,37.2h22L27.7,47.6c-0.5,0.5-0.5,1.2,0,1.7c0.5,0.5,1.2,0.5,1.7,0l12.4-12.4c0.1-0.1,0.2-0.2,0.3-0.4
		c0.1-0.3,0.1-0.6,0-0.9c-0.1-0.1-0.1-0.3-0.3-0.4L29.3,22.7c-0.2-0.2-0.5-0.3-0.8-0.3s-0.6,0.1-0.8,0.3c-0.5,0.5-0.5,1.2,0,1.7
		l10.4,10.4h-22c-0.7,0-1.2,0.5-1.2,1.2C14.9,36.7,15.4,37.2,16.1,37.2z"/>
</g>
</svg>
