<?xml version="1.0" encoding="utf-8"?>
<!-- Generator: Adobe Illustrator 25.2.0, SVG Export Plug-In . SVG Version: 6.00 Build 0)  -->
<svg version="1.1" id="Warstwa_1" xmlns="http://www.w3.org/2000/svg" xmlns:xlink="http://www.w3.org/1999/xlink" x="0px" y="0px"
	 viewBox="0 0 57 72" style="enable-background:new 0 0 57 72;" xml:space="preserve">
<style type="text/css">
	.st0{fill:#80C8D6;}
	.st1{fill:#FFFFFF;}
</style>
<g>
	<rect x="0" y="0" class="st0" width="57" height="72"/>
	<path class="st1" d="M40.9,34.8l-22,0l10.4-10.4c0.5-0.5,0.5-1.2,0-1.7s-1.2-0.5-1.7,0L15.2,35.2c-0.1,0.1-0.2,0.2-0.3,0.4
		c-0.1,0.3-0.1,0.6,0,0.9c0.1,0.1,0.1,0.3,0.3,0.4l12.4,12.4c0.2,0.2,0.5,0.3,0.8,0.3c0.3,0,0.6-0.1,0.8-0.3c0.5-0.5,0.5-1.2,0-1.7
		L18.9,37.2l22,0c0.7,0,1.2-0.5,1.2-1.2C42.1,35.3,41.6,34.8,40.9,34.8z"/>
</g>
</svg>
