<?xml version="1.0" encoding="utf-8"?>
<!-- Generator: Adobe Illustrator 25.2.0, SVG Export Plug-In . SVG Version: 6.00 Build 0)  -->
<svg version="1.1" id="Warstwa_1" xmlns="http://www.w3.org/2000/svg" xmlns:xlink="http://www.w3.org/1999/xlink" x="0px" y="0px"
	 viewBox="0 0 77 79" style="enable-background:new 0 0 77 79;" xml:space="preserve">
<style type="text/css">
	.st0{clip-path:url(#SVGID_2_);}
	.st1{clip-path:url(#SVGID_4_);}
	.st2{clip-path:url(#SVGID_6_);}
</style>
<g id="Group_739" transform="translate(0 -0.261)">
	<g id="Group_168">
		<g>
			<defs>
				<rect id="SVGID_1_" y="0.3" width="77" height="79"/>
			</defs>
			<clipPath id="SVGID_2_">
				<use xlink:href="#SVGID_1_"  style="overflow:visible;"/>
			</clipPath>
			<g id="Group_167" class="st0">
				<polygon points="53.8,8.8 51.8,8.8 51.8,2.8 25.7,2.8 25.7,8.8 23.7,8.8 23.7,0.8 53.8,0.8 				"/>
				<path d="M45,78.3H34v-16h11V78.3z M36,76.3h7v-12h-7V76.3z"/>
			</g>
		</g>
	</g>
	<polygon points="36.2,40.5 34.2,40.5 34.2,34.5 29.2,34.5 29.2,40.5 27.2,40.5 27.2,32.5 36.2,32.5 	"/>
	<polygon points="36.2,54.6 34.2,54.6 34.2,48.6 29.2,48.6 29.2,54.6 27.2,54.6 27.2,46.6 36.2,46.6 	"/>
	<polygon points="52.1,40.5 50.1,40.5 50.1,34.5 45,34.5 45,40.5 43,40.5 43,32.5 52.1,32.5 	"/>
	<polygon points="36.2,26.4 34.2,26.4 34.2,20.4 29.2,20.4 29.2,26.4 27.2,26.4 27.2,18.4 36.2,18.4 	"/>
	<polygon points="52.1,26.4 50.1,26.4 50.1,20.4 45,20.4 45,26.4 43,26.4 43,18.4 52.1,18.4 	"/>
	<polygon points="52.1,54.6 50.1,54.6 50.1,48.6 45,48.6 45,54.6 43,54.6 43,46.6 52.1,46.6 	"/>
	<g id="Group_170">
		<g>
			<defs>
				<rect id="SVGID_3_" y="0.3" width="77" height="79"/>
			</defs>
			<clipPath id="SVGID_4_">
				<use xlink:href="#SVGID_3_"  style="overflow:visible;"/>
			</clipPath>
			<g id="Group_169" class="st1">
				<polygon points="14.1,78.5 0.8,78.5 0.8,28.9 14.1,28.9 14.1,30.9 2.8,30.9 2.8,76.5 14.1,76.5 				"/>
			</g>
		</g>
	</g>
	<polygon points="8,29.9 6,29.9 6,21.9 14.1,21.9 14.1,23.9 8,23.9 	"/>
	<g id="Group_172">
		<g>
			<defs>
				<rect id="SVGID_5_" y="0.3" width="77" height="79"/>
			</defs>
			<clipPath id="SVGID_6_">
				<use xlink:href="#SVGID_5_"  style="overflow:visible;"/>
			</clipPath>
			<g id="Group_171" class="st2">
				<polygon points="76.7,78.5 65.2,78.5 65.2,76.5 74.7,76.5 74.7,48.6 65.2,48.6 65.2,46.6 76.7,46.6 				"/>
				<polygon points="73.2,47.6 71.2,47.6 71.2,41.5 65.2,41.5 65.2,39.5 73.2,39.5 				"/>
				<path d="M61,78.3H18v-70h43V78.3z M20,76.3h39v-66H20V76.3z"/>
			</g>
		</g>
	</g>
</g>
</svg>
