<?xml version="1.0" encoding="utf-8"?>
<!-- Generator: Adobe Illustrator 25.2.0, SVG Export Plug-In . SVG Version: 6.00 Build 0)  -->
<svg version="1.1" id="Warstwa_1" xmlns="http://www.w3.org/2000/svg" xmlns:xlink="http://www.w3.org/1999/xlink" x="0px" y="0px"
	 viewBox="0 0 80 69" style="enable-background:new 0 0 80 69;" xml:space="preserve">
<style type="text/css">
	.st0{clip-path:url(#SVGID_2_);}
</style>
<g>
	<defs>
		<rect id="SVGID_1_" y="0" width="80" height="69"/>
	</defs>
	<clipPath id="SVGID_2_">
		<use xlink:href="#SVGID_1_"  style="overflow:visible;"/>
	</clipPath>
	<g id="Group_566" transform="translate(-0.348)" class="st0">
		<path d="M1.7,59.6c-0.5,0-1-0.4-1-1c0,0,0-0.1,0-0.1V9.9c0-2.5,1-4.8,2.8-6.6c1.8-1.7,4.1-2.7,6.6-2.7c0.5,0,1,0.5,1,1v48.5
			c0,0.6-0.4,1-1,1c-4.1,0-7.3,3.3-7.4,7.3v0.1C2.7,59.2,2.2,59.6,1.7,59.6C1.7,59.6,1.7,59.6,1.7,59.6z M9,2.7
			c-1.6,0.2-3,0.9-4.2,2C3.5,6.1,2.7,8,2.7,9.9v42.9c0.2-0.3,0.4-0.5,0.7-0.8c1.5-1.6,3.5-2.5,5.7-2.7V2.7z"/>
		<path d="M78.7,68H10.1c-5.1,0-9.4-4.2-9.4-9.4l2,0c0,4,3.4,7.4,7.4,7.4h67.6V12.7H10v-2h68.6c0.6,0,1,0.4,1,1V67
			C79.7,67.5,79.2,68,78.7,68z"/>
		<polygon points="41.2,47.9 20.8,47.9 20.8,20.8 41.2,20.8 41.2,28.5 39.2,28.5 39.2,22.8 22.8,22.8 22.8,45.9 39.2,45.9 
			39.2,33.5 41.2,33.5 		"/>
		<polygon points="68,39.5 60.3,39.5 60.3,37.5 66,37.5 66,22.8 40.2,22.8 40.2,20.8 68,20.8 		"/>
		<polygon points="61.3,57.9 32.5,57.9 32.5,46.9 34.5,46.9 34.5,55.9 59.3,55.9 59.3,39.5 53.6,39.5 53.6,37.5 61.3,37.5 		"/>
		<rect x="40.3" y="38" width="8" height="2"/>
	</g>
</g>
</svg>
